<?xml version="1.0" encoding="utf-8"?>
<!-- Generator: Adobe Illustrator 18.1.1, SVG Export Plug-In . SVG Version: 6.00 Build 0)  -->
<!DOCTYPE svg PUBLIC "-//W3C//DTD SVG 1.1//EN" "http://www.w3.org/Graphics/SVG/1.1/DTD/svg11.dtd">
<svg version="1.1" id="Layer_1" xmlns="http://www.w3.org/2000/svg" xmlns:xlink="http://www.w3.org/1999/xlink" x="0px" y="0px"
	 viewBox="0 0 679.2 665.8" enable-background="new 0 0 679.2 665.8" xml:space="preserve">
<g>
	<g>
		<defs>
			<circle id="SVGID_1_" cx="339.9" cy="332.8" r="300.4"/>
		</defs>
		<clipPath id="SVGID_2_">
			<use xlink:href="#SVGID_1_"  overflow="visible"/>
		</clipPath>
		<g clip-path="url(#SVGID_2_)">
			<path fill="none" stroke="#000000" stroke-width="20" stroke-miterlimit="10" d="M500.1,276.5c0.1-1.9,0.1-3.8,0.1-5.6
				c0-88.8-72-160.7-160.7-160.7c-88.8,0-160.7,72-160.7,160.7c0,31.6,9.1,61.1,24.9,85.9c-50.6,45.5-85.7,112.1-85.7,178.4
				c0,117.5,110.4,189.3,221.6,189.3S561.1,653.5,561.1,536c0-33.5-9-67.1-24.4-98.1"/>
			<line fill="none" stroke="#000000" stroke-width="20" stroke-miterlimit="10" x1="380.5" y1="367" x2="564.5" y2="367"/>
			<line fill="none" stroke="#000000" stroke-width="20" stroke-miterlimit="10" x1="470.5" y1="275" x2="470.5" y2="459"/>
		</g>
	</g>
	<circle fill="none" stroke="#000000" stroke-width="60" stroke-miterlimit="10" cx="339.9" cy="332.8" r="300.4"/>
</g>
</svg>
